<svg width="24" height="25" viewBox="0 0 24 25" fill="none" xmlns="http://www.w3.org/2000/svg">
<path d="M3.62 25V0.499998H13.245C16.395 0.499998 18.88 1.2 20.7 2.6C22.52 3.97667 23.43 5.995 23.43 8.655C23.43 11.315 22.52 13.345 20.7 14.745C18.88 16.145 16.395 16.845 13.245 16.845H5.58L7.155 15.2V25H3.62ZM7.155 15.55L5.58 13.94H13.245C15.3917 13.94 17.0367 13.485 18.18 12.575C19.3233 11.665 19.895 10.37 19.895 8.69C19.895 7.03333 19.3233 5.76167 18.18 4.875C17.0367 3.98833 15.3917 3.545 13.245 3.545H5.58L7.155 1.795V15.55ZM0.05 20.905V18.91H14.925V20.905H0.05Z" fill="#2E3A59"/>
</svg>
